<mxfile host="65bd71144e">
    <diagram id="cADXHsG_HM9WdhetI6YW" name="Page-1">
        <mxGraphModel dx="1607" dy="1080" grid="1" gridSize="10" guides="1" tooltips="1" connect="1" arrows="1" fold="1" page="1" pageScale="1" pageWidth="827" pageHeight="1169" math="0" shadow="0">
            <root>
                <mxCell id="0"/>
                <mxCell id="1" parent="0"/>
                <mxCell id="20" value="" style="rounded=0;whiteSpace=wrap;html=1;shadow=0;fillColor=#36164F;movable=0;resizable=0;rotatable=0;deletable=0;editable=0;connectable=0;" parent="1" vertex="1">
                    <mxGeometry x="827" y="30" width="613" height="870" as="geometry"/>
                </mxCell>
                <mxCell id="19" value="" style="rounded=0;whiteSpace=wrap;html=1;shadow=0;fillColor=#12164F;movable=0;resizable=0;rotatable=0;deletable=0;editable=0;connectable=0;" parent="1" vertex="1">
                    <mxGeometry x="105" y="30" width="655" height="870" as="geometry"/>
                </mxCell>
                <mxCell id="8" value="" style="edgeStyle=none;html=1;" parent="1" source="2" target="4" edge="1">
                    <mxGeometry relative="1" as="geometry"/>
                </mxCell>
                <mxCell id="2" value="User opens website" style="rounded=1;whiteSpace=wrap;html=1;" parent="1" vertex="1">
                    <mxGeometry x="310" y="50" width="120" height="60" as="geometry"/>
                </mxCell>
                <mxCell id="9" value="" style="edgeStyle=none;html=1;" parent="1" source="4" target="6" edge="1">
                    <mxGeometry relative="1" as="geometry"/>
                </mxCell>
                <mxCell id="4" value="Identify topic" style="rhombus;whiteSpace=wrap;html=1;" parent="1" vertex="1">
                    <mxGeometry x="330" y="140" width="80" height="80" as="geometry"/>
                </mxCell>
                <mxCell id="5" value="CSS functions&lt;br&gt;'button'" style="rounded=1;whiteSpace=wrap;html=1;shadow=0;dashed=1;dashPattern=12 12;" parent="1" vertex="1">
                    <mxGeometry x="120" y="250" width="120" height="60" as="geometry"/>
                </mxCell>
                <mxCell id="11" value="" style="edgeStyle=none;html=1;" parent="1" source="6" target="10" edge="1">
                    <mxGeometry relative="1" as="geometry"/>
                </mxCell>
                <mxCell id="55" value="" style="edgeStyle=none;html=1;dashed=1;dashPattern=12 12;" edge="1" parent="1" source="6" target="7">
                    <mxGeometry relative="1" as="geometry"/>
                </mxCell>
                <mxCell id="56" value="" style="edgeStyle=none;html=1;dashed=1;dashPattern=12 12;" edge="1" parent="1" source="6" target="5">
                    <mxGeometry relative="1" as="geometry"/>
                </mxCell>
                <mxCell id="6" value="Javascript&lt;br&gt;&amp;nbsp;'button'" style="rounded=1;whiteSpace=wrap;html=1;" parent="1" vertex="1">
                    <mxGeometry x="310" y="250" width="120" height="60" as="geometry"/>
                </mxCell>
                <mxCell id="7" value="React&lt;br&gt;'button'" style="rounded=1;whiteSpace=wrap;html=1;dashed=1;dashPattern=12 12;" parent="1" vertex="1">
                    <mxGeometry x="500" y="250" width="120" height="60" as="geometry"/>
                </mxCell>
                <mxCell id="13" value="" style="edgeStyle=none;html=1;" parent="1" source="10" target="12" edge="1">
                    <mxGeometry relative="1" as="geometry"/>
                </mxCell>
                <mxCell id="10" value="Selects Javascript" style="rhombus;whiteSpace=wrap;html=1;" parent="1" vertex="1">
                    <mxGeometry x="330" y="340" width="80" height="80" as="geometry"/>
                </mxCell>
                <mxCell id="22" value="" style="edgeStyle=none;html=1;" parent="1" source="12" target="21" edge="1">
                    <mxGeometry relative="1" as="geometry"/>
                </mxCell>
                <mxCell id="12" value="Javascript topic page" style="rounded=1;whiteSpace=wrap;html=1;shadow=0;" parent="1" vertex="1">
                    <mxGeometry x="310" y="560" width="120" height="60" as="geometry"/>
                </mxCell>
                <mxCell id="45" style="edgeStyle=none;html=1;exitX=1;exitY=0.5;exitDx=0;exitDy=0;fillColor=#f0a30a;strokeColor=#BD7000;" edge="1" parent="1" source="17" target="44">
                    <mxGeometry relative="1" as="geometry">
                        <mxPoint x="800" y="90" as="targetPoint"/>
                        <Array as="points">
                            <mxPoint x="790" y="590"/>
                            <mxPoint x="790" y="100"/>
                        </Array>
                    </mxGeometry>
                </mxCell>
                <mxCell id="17" value="Test yourself...&lt;br&gt;'button'" style="rounded=1;whiteSpace=wrap;html=1;shadow=0;" parent="1" vertex="1">
                    <mxGeometry x="520" y="560" width="120" height="60" as="geometry"/>
                </mxCell>
                <mxCell id="23" value="" style="edgeStyle=none;html=1;" parent="1" source="21" target="17" edge="1">
                    <mxGeometry relative="1" as="geometry"/>
                </mxCell>
                <mxCell id="34" value="" style="edgeStyle=none;html=1;" parent="1" source="21" target="32" edge="1">
                    <mxGeometry relative="1" as="geometry"/>
                </mxCell>
                <mxCell id="36" style="edgeStyle=none;html=1;exitX=0;exitY=1;exitDx=0;exitDy=0;entryX=0.5;entryY=0;entryDx=0;entryDy=0;" parent="1" source="21" target="31" edge="1">
                    <mxGeometry relative="1" as="geometry"/>
                </mxCell>
                <mxCell id="37" style="edgeStyle=none;html=1;exitX=1;exitY=1;exitDx=0;exitDy=0;entryX=0.5;entryY=0;entryDx=0;entryDy=0;" parent="1" source="21" target="33" edge="1">
                    <mxGeometry relative="1" as="geometry"/>
                </mxCell>
                <mxCell id="21" value="user choice" style="rhombus;whiteSpace=wrap;html=1;shadow=0;fillColor=#000000;" parent="1" vertex="1">
                    <mxGeometry x="330" y="640" width="80" height="80" as="geometry"/>
                </mxCell>
                <mxCell id="28" value="Main Page" style="text;html=1;strokeColor=none;fillColor=none;align=center;verticalAlign=middle;whiteSpace=wrap;rounded=0;shadow=0;" parent="1" vertex="1">
                    <mxGeometry x="150" y="120" width="60" height="30" as="geometry"/>
                </mxCell>
                <mxCell id="30" value="Javascript Topic Page" style="text;html=1;strokeColor=none;fillColor=none;align=center;verticalAlign=middle;whiteSpace=wrap;rounded=0;shadow=0;" parent="1" vertex="1">
                    <mxGeometry x="130" y="580" width="100" height="50" as="geometry"/>
                </mxCell>
                <mxCell id="31" value="Variables&lt;br&gt;'button'" style="rounded=1;whiteSpace=wrap;html=1;shadow=0;fillColor=#000000;" parent="1" vertex="1">
                    <mxGeometry x="140" y="800" width="120" height="60" as="geometry"/>
                </mxCell>
                <mxCell id="32" value="Arrays&lt;br&gt;'button'" style="rounded=1;whiteSpace=wrap;html=1;shadow=0;fillColor=#000000;" parent="1" vertex="1">
                    <mxGeometry x="310" y="800" width="120" height="60" as="geometry"/>
                </mxCell>
                <mxCell id="33" value="Functions&lt;br&gt;'button" style="rounded=1;whiteSpace=wrap;html=1;shadow=0;fillColor=#000000;" parent="1" vertex="1">
                    <mxGeometry x="470" y="800" width="120" height="60" as="geometry"/>
                </mxCell>
                <mxCell id="38" value="Return to Topic button" style="rounded=1;whiteSpace=wrap;html=1;shadow=0;fillColor=#000000;" parent="1" vertex="1">
                    <mxGeometry x="620" y="800" width="120" height="60" as="geometry"/>
                </mxCell>
                <mxCell id="42" value="" style="endArrow=none;html=1;entryX=0.5;entryY=0;entryDx=0;entryDy=0;exitX=1;exitY=0.5;exitDx=0;exitDy=0;" edge="1" parent="1" source="4" target="38">
                    <mxGeometry width="50" height="50" relative="1" as="geometry">
                        <mxPoint x="680" y="580.9070405505952" as="sourcePoint"/>
                        <mxPoint x="640" y="760" as="targetPoint"/>
                        <Array as="points">
                            <mxPoint x="680" y="180"/>
                            <mxPoint x="680" y="640"/>
                        </Array>
                    </mxGeometry>
                </mxCell>
                <mxCell id="52" value="" style="edgeStyle=none;html=1;" edge="1" parent="1" source="44" target="48">
                    <mxGeometry relative="1" as="geometry"/>
                </mxCell>
                <mxCell id="44" value="Quiz Functions&amp;nbsp;" style="rounded=1;whiteSpace=wrap;html=1;" vertex="1" parent="1">
                    <mxGeometry x="1070" y="70" width="120" height="60" as="geometry"/>
                </mxCell>
                <mxCell id="46" value="&lt;h1&gt;Basic MVP&lt;/h1&gt;&lt;p&gt;Recap webdesign/app to help go over the topics at the SOC.&lt;/p&gt;" style="text;html=1;strokeColor=none;fillColor=none;spacing=5;spacingTop=-20;whiteSpace=wrap;overflow=hidden;rounded=0;" vertex="1" parent="1">
                    <mxGeometry x="510" y="40" width="190" height="120" as="geometry"/>
                </mxCell>
                <mxCell id="47" value="&lt;h1&gt;MVP Quiz on JS&lt;/h1&gt;&lt;p&gt;Go through tasks step by step. There will be five in total&lt;/p&gt;&lt;p&gt;&lt;br&gt;&lt;/p&gt;" style="text;html=1;strokeColor=none;fillColor=none;spacing=5;spacingTop=-20;whiteSpace=wrap;overflow=hidden;rounded=0;" vertex="1" parent="1">
                    <mxGeometry x="1220" y="50" width="190" height="120" as="geometry"/>
                </mxCell>
                <mxCell id="53" value="" style="edgeStyle=none;html=1;" edge="1" parent="1" source="48">
                    <mxGeometry relative="1" as="geometry">
                        <mxPoint x="1130" y="250" as="targetPoint"/>
                    </mxGeometry>
                </mxCell>
                <mxCell id="58" value="" style="edgeStyle=none;html=1;dashed=1;dashPattern=12 12;" edge="1" parent="1" source="48" target="57">
                    <mxGeometry relative="1" as="geometry"/>
                </mxCell>
                <mxCell id="48" value="Question" style="rounded=1;whiteSpace=wrap;html=1;" vertex="1" parent="1">
                    <mxGeometry x="1070" y="170" width="120" height="60" as="geometry"/>
                </mxCell>
                <mxCell id="63" value="" style="edgeStyle=none;html=1;" edge="1" parent="1" source="49" target="59">
                    <mxGeometry relative="1" as="geometry"/>
                </mxCell>
                <mxCell id="49" value="result" style="rounded=1;whiteSpace=wrap;html=1;" vertex="1" parent="1">
                    <mxGeometry x="1070" y="390" width="120" height="60" as="geometry"/>
                </mxCell>
                <mxCell id="54" value="" style="edgeStyle=none;html=1;exitX=0.5;exitY=1;exitDx=0;exitDy=0;" edge="1" parent="1" source="62" target="49">
                    <mxGeometry relative="1" as="geometry">
                        <mxPoint x="1130" y="370" as="sourcePoint"/>
                    </mxGeometry>
                </mxCell>
                <mxCell id="57" value="Question database" style="shape=cylinder3;whiteSpace=wrap;html=1;boundedLbl=1;backgroundOutline=1;size=15;dashed=1;dashPattern=12 12;" vertex="1" parent="1">
                    <mxGeometry x="880" y="130" width="120" height="140" as="geometry"/>
                </mxCell>
                <mxCell id="64" value="" style="edgeStyle=none;html=1;" edge="1" parent="1" source="59" target="60">
                    <mxGeometry relative="1" as="geometry"/>
                </mxCell>
                <mxCell id="65" value="" style="edgeStyle=none;html=1;" edge="1" parent="1" source="59" target="61">
                    <mxGeometry relative="1" as="geometry"/>
                </mxCell>
                <mxCell id="69" value="" style="edgeStyle=none;html=1;" edge="1" parent="1" source="59" target="68">
                    <mxGeometry relative="1" as="geometry"/>
                </mxCell>
                <mxCell id="59" value="User choice" style="rhombus;whiteSpace=wrap;html=1;" vertex="1" parent="1">
                    <mxGeometry x="1090" y="485" width="80" height="80" as="geometry"/>
                </mxCell>
                <mxCell id="60" value="Retry" style="rounded=1;whiteSpace=wrap;html=1;" vertex="1" parent="1">
                    <mxGeometry x="950" y="495" width="120" height="60" as="geometry"/>
                </mxCell>
                <mxCell id="67" style="edgeStyle=none;html=1;exitX=1;exitY=0.5;exitDx=0;exitDy=0;entryX=0;entryY=0.5;entryDx=0;entryDy=0;" edge="1" parent="1" source="61" target="66">
                    <mxGeometry relative="1" as="geometry"/>
                </mxCell>
                <mxCell id="61" value="Next" style="rounded=1;whiteSpace=wrap;html=1;" vertex="1" parent="1">
                    <mxGeometry x="1190" y="495" width="120" height="60" as="geometry"/>
                </mxCell>
                <mxCell id="62" value="Input" style="rhombus;whiteSpace=wrap;html=1;" vertex="1" parent="1">
                    <mxGeometry x="1075" y="250" width="110" height="110" as="geometry"/>
                </mxCell>
                <mxCell id="66" value="5 questions total" style="shape=parallelogram;perimeter=parallelogramPerimeter;whiteSpace=wrap;html=1;fixedSize=1;" vertex="1" parent="1">
                    <mxGeometry x="1320" y="495" width="120" height="60" as="geometry"/>
                </mxCell>
                <mxCell id="68" value="Identify topic&amp;nbsp;&lt;br&gt;Button" style="rounded=1;whiteSpace=wrap;html=1;" vertex="1" parent="1">
                    <mxGeometry x="1070" y="600" width="120" height="60" as="geometry"/>
                </mxCell>
                <mxCell id="72" value="" style="endArrow=classic;html=1;entryX=0.5;entryY=0;entryDx=0;entryDy=0;fillColor=#fa6800;strokeColor=#C73500;exitX=0;exitY=0.5;exitDx=0;exitDy=0;" edge="1" parent="1" source="68" target="4">
                    <mxGeometry width="50" height="50" relative="1" as="geometry">
                        <mxPoint x="840" y="810" as="sourcePoint"/>
                        <mxPoint x="900" y="480" as="targetPoint"/>
                        <Array as="points">
                            <mxPoint x="850" y="630"/>
                            <mxPoint x="850" y="140"/>
                        </Array>
                    </mxGeometry>
                </mxCell>
            </root>
        </mxGraphModel>
    </diagram>
</mxfile>